<svg width="116" height="41" viewBox="0 0 116 41" fill="none" xmlns="http://www.w3.org/2000/svg">
<path d="M14.0273 16.7832C12.3776 17.5944 10.4316 18 8.18945 18H0.587891L0.833984 16.5508L3.24023 15.4707V3.60352L0.888672 3.08398L0.998047 1.48438C2.32878 1.27474 3.67318 1.11068 5.03125 0.992188C6.38932 0.864583 7.56055 0.800781 8.54492 0.800781C12.4186 0.800781 15.1439 1.57096 16.7207 3.11133C18.3066 4.65169 19.0996 6.64323 19.0996 9.08594C19.0996 10.6719 18.6667 12.1484 17.8008 13.5156C16.9349 14.8737 15.6771 15.9629 14.0273 16.7832ZM7.50586 2.90625C7.4056 2.92448 7.25977 2.93815 7.06836 2.94727V15.9082H8.57227C10.0944 15.9082 11.3249 15.612 12.2637 15.0195C13.2116 14.418 13.8861 13.6615 14.2871 12.75C14.6882 11.8294 14.8887 10.8542 14.8887 9.82422C14.8887 8.62109 14.638 7.49089 14.1367 6.43359C13.6354 5.3763 12.8698 4.51953 11.8398 3.86328C10.8099 3.20703 9.53841 2.87891 8.02539 2.87891C7.8431 2.87891 7.66992 2.88802 7.50586 2.90625ZM27.6855 18H20.3574L20.5488 16.5508L22.6543 15.4707L28.3145 1.30664L31.7051 0.650391L37.0371 15.5254L38.9922 16.4688L38.8418 18.0137H30.3652L30.5566 16.5645L32.8672 15.4844L31.8555 12.6406H26.3184L25.3066 15.5117L27.8633 16.4414L27.6855 18ZM29.1758 4.54688L27.0566 10.5078H31.1719L29.1758 4.54688Z" fill="#FF56F6"/>
<path d="M47.4004 18H40.3184L40.5371 16.4414L42.834 15.5801L43.7227 3.26172L41.2207 2.57812L41.3848 0.992188H48.2891L49.3145 3.72656L52.1582 12.1758L55.3574 3.48047L56.2871 0.992188H63.0957L62.9043 2.57812L60.6484 3.20703L61.4824 15.6484L63.9297 16.3594L63.7656 18H55.7129L55.959 16.4414L57.8457 15.5801L57.1074 5.83203L52.9648 17.4531L50.1621 17.8359L46.1699 6.00977L45.5137 15.6484L47.6465 16.3594L47.4004 18ZM67.8398 3.33008L65.3105 2.53711L65.5156 0.992188H74.2109L74.0332 2.60547L71.6543 3.31641V15.7031L74.1289 16.3594L73.9648 18H65.3789L65.4883 16.5234L67.8398 15.6621V3.33008Z" fill="#B03EED"/>
<path d="M89.0039 16.7832C87.3542 17.5944 85.4082 18 83.166 18H75.5645L75.8105 16.5508L78.2168 15.4707V3.60352L75.8652 3.08398L75.9746 1.48438C77.3053 1.27474 78.6497 1.11068 80.0078 0.992188C81.3659 0.864583 82.5371 0.800781 83.5215 0.800781C87.3952 0.800781 90.1204 1.57096 91.6973 3.11133C93.2832 4.65169 94.0762 6.64323 94.0762 9.08594C94.0762 10.6719 93.6432 12.1484 92.7773 13.5156C91.9115 14.8737 90.6536 15.9629 89.0039 16.7832ZM82.4824 2.90625C82.3822 2.92448 82.2363 2.93815 82.0449 2.94727V15.9082H83.5488C85.071 15.9082 86.3014 15.612 87.2402 15.0195C88.1882 14.418 88.8626 13.6615 89.2637 12.75C89.6647 11.8294 89.8652 10.8542 89.8652 9.82422C89.8652 8.62109 89.6146 7.49089 89.1133 6.43359C88.612 5.3763 87.8464 4.51953 86.8164 3.86328C85.7865 3.20703 84.515 2.87891 83.002 2.87891C82.8197 2.87891 82.6465 2.88802 82.4824 2.90625ZM97.8359 11.4922V3.33008L95.2793 2.53711L95.5664 0.992188H104.193L103.988 2.53711L101.691 3.26172V10.8086C101.691 12.4674 102.083 13.6979 102.867 14.5C103.651 15.293 104.727 15.6895 106.094 15.6895C107.352 15.6895 108.331 15.3066 109.033 14.541C109.735 13.7754 110.086 12.6042 110.086 11.0273L110.1 3.33008L107.652 2.53711L107.844 0.992188H115.117L114.926 2.53711L112.656 3.26172L112.602 10.6172C112.574 13.2422 111.95 15.1927 110.729 16.4688C109.507 17.7357 107.666 18.3691 105.205 18.3691C103.883 18.3691 102.689 18.2096 101.623 17.8906C100.566 17.5716 99.668 16.9062 98.9297 15.8945C98.2005 14.8828 97.8359 13.4154 97.8359 11.4922Z" fill="#4B9DE3"/>
<path d="M11.5938 37.7578L11.2656 40H0.464844L0.765625 38.1133L3.32227 37.0332V26.2188L0.724609 25.6172L0.902344 23.4434C2.57943 23.1699 4.00586 22.974 5.18164 22.8555C6.36654 22.737 7.74284 22.6777 9.31055 22.6777C11.735 22.6777 13.5898 23.1061 14.875 23.9629C16.1602 24.8105 16.8027 26.2461 16.8027 28.2695C16.8027 29.3633 16.5156 30.3659 15.9414 31.2773C15.3763 32.1797 14.5788 32.8952 13.5488 33.4238C12.5189 33.9525 11.3385 34.2168 10.0078 34.2168C9.69792 34.2168 9.32878 34.194 8.90039 34.1484L8.46289 31.7695H8.75C9.73438 31.7695 10.4772 31.5234 10.9785 31.0312C11.4889 30.5391 11.7441 29.8828 11.7441 29.0625C11.7441 28.0599 11.5163 27.2305 11.0605 26.5742C10.6048 25.918 9.94401 25.5898 9.07812 25.5898C8.83203 25.5898 8.52669 25.6217 8.16211 25.6855V36.8145L11.5938 37.7578ZM27.7812 37.8809L27.6172 40H17.7734L18.0332 38.1133L20.6309 37.0332V26.3828L18.0059 25.7402L18.1699 23.5527C20.4941 23.0788 23.2604 22.8418 26.4688 22.8418C28.3008 22.8418 29.8092 22.9967 30.9941 23.3066C32.1882 23.6074 33.0905 24.1087 33.7012 24.8105C34.3118 25.5033 34.6172 26.4284 34.6172 27.5859C34.6172 28.7253 34.3164 29.6823 33.7148 30.457C33.1224 31.2227 32.3568 31.7969 31.418 32.1797V32.1934L32.8262 34.2578C33.3822 35.0508 33.9655 35.7253 34.5762 36.2812C35.196 36.8281 35.8704 37.3431 36.5996 37.8262L37.1328 38.1816L36.709 39.9727C36.472 40.0911 36.1484 40.1823 35.7383 40.2461C35.3281 40.319 34.8997 40.3555 34.4531 40.3555C33.3047 40.3555 32.3249 40.1549 31.5137 39.7539C30.7116 39.3438 30.0371 38.7285 29.4902 37.9082C28.9434 37.0788 28.4831 36.0078 28.1094 34.6953L27.7949 33.5879H25.6895V37.1426L27.7812 37.8809ZM26.1406 25.3027C25.9401 25.3027 25.7897 25.3073 25.6895 25.3164V31.1406H28.4648C28.7839 30.8125 29.0208 30.4206 29.1758 29.9648C29.3307 29.5091 29.4082 28.9349 29.4082 28.2422C29.4082 27.7227 29.2715 27.2396 28.998 26.793C28.7337 26.3372 28.3509 25.9772 27.8496 25.7129C27.3574 25.4395 26.7878 25.3027 26.1406 25.3027ZM46.2246 40H38.0898L38.3496 38.1133L40.4141 36.7051L45.7188 23.5254L50.4629 22.6367L55.7949 36.7461L57.6816 38.0176L57.5176 40.0273H47.7422L47.9609 38.1406L50.2305 36.7188L49.7109 35.1875H44.3516L43.8457 36.7188L46.4297 37.9766L46.2246 40ZM47.0039 27.2441L45.3086 32.3301H48.7402L47.0039 27.2441ZM67.5391 39.7676C66.4727 40.1322 65.4701 40.3145 64.5312 40.3145C63.0729 40.3145 61.8151 40.2005 60.7578 39.9727C59.7005 39.7448 58.9896 39.4531 58.625 39.0977L59.0898 34.0117L61.5098 34.4082L62.084 36.9648C62.3392 37.2474 62.7357 37.4707 63.2734 37.6348C63.8203 37.7897 64.3854 37.8672 64.9688 37.8672C65.3607 37.8672 65.7253 37.7943 66.0625 37.6484C66.4089 37.4935 66.6823 37.2975 66.8828 37.0605C67.0924 36.8145 67.1973 36.5592 67.1973 36.2949C67.1973 35.9668 67.0651 35.6706 66.8008 35.4062C66.5365 35.1328 66.2038 34.8913 65.8027 34.6816C65.4108 34.4629 64.8548 34.194 64.1348 33.875C63.0228 33.3828 62.1113 32.9271 61.4004 32.5078C60.6895 32.0794 60.0742 31.5189 59.5547 30.8262C59.0352 30.1243 58.7754 29.2767 58.7754 28.2832C58.7754 27.1712 59.0671 26.1914 59.6504 25.3438C60.2337 24.4961 61.0312 23.8444 62.043 23.3887C63.0547 22.9238 64.1849 22.6914 65.4336 22.6914C65.944 22.6914 66.5456 22.7415 67.2383 22.8418C67.9401 22.9421 68.5872 23.0788 69.1797 23.252C69.7721 23.416 70.1823 23.5938 70.4102 23.7852C70.4102 23.9219 70.3555 24.6602 70.2461 26C70.1367 27.3398 70.0638 28.2513 70.0273 28.7344L67.6621 28.3242L67.1289 26.0957C66.8919 25.7311 66.5137 25.4395 65.9941 25.2207C65.4746 24.9928 64.9596 24.8789 64.4492 24.8789C63.8568 24.8789 63.401 25.0202 63.082 25.3027C62.763 25.5853 62.6035 25.9727 62.6035 26.4648C62.6035 26.7656 62.7357 27.0527 63 27.3262C63.2734 27.5905 63.6152 27.832 64.0254 28.0508C64.4355 28.2695 65.0189 28.5566 65.7754 28.9121C66.9512 29.459 67.9173 29.9603 68.6738 30.416C69.4303 30.8626 70.082 31.4414 70.6289 32.1523C71.1849 32.8542 71.4629 33.6882 71.4629 34.6543C71.4629 36.0033 71.0755 37.1016 70.3008 37.9492C69.5352 38.7969 68.6146 39.403 67.5391 39.7676ZM80.541 40H72.4062L72.666 38.1133L74.7305 36.7051L80.0352 23.5254L84.7793 22.6367L90.1113 36.7461L91.998 38.0176L91.834 40.0273H82.0586L82.2773 38.1406L84.5469 36.7188L84.0273 35.1875H78.668L78.1621 36.7188L80.7461 37.9766L80.541 40ZM81.3203 27.2441L79.625 32.3301H83.0566L81.3203 27.2441ZM106.736 38.8242C105.187 39.6081 103.359 40 101.254 40H92.9414L93.1191 37.8398L95.5801 36.7051V26.2871L93.2148 25.6582L93.3105 23.5117C94.2311 23.3294 95.4707 23.1654 97.0293 23.0195C98.5879 22.8737 100.051 22.8008 101.418 22.8008C103.815 22.8008 105.766 23.1517 107.27 23.8535C108.783 24.5553 109.872 25.5078 110.537 26.7109C111.212 27.9049 111.549 29.2721 111.549 30.8125C111.549 32.5898 111.134 34.1758 110.305 35.5703C109.484 36.9557 108.295 38.0404 106.736 38.8242ZM100.885 25.5488C100.766 25.5488 100.684 25.5534 100.639 25.5625V37.2383H101.664C103.542 37.2383 104.804 36.6868 105.451 35.584C106.098 34.4811 106.422 33.2279 106.422 31.8242C106.422 30.849 106.226 29.8828 105.834 28.9258C105.451 27.9596 104.84 27.1576 104.002 26.5195C103.173 25.8724 102.133 25.5488 100.885 25.5488Z" fill="white"/>
</svg>
